<svg xmlns="http://www.w3.org/2000/svg" viewBox="0 0 215.23 78.06"><defs><style>.cls-1{fill:#231f20;}.cls-2{fill:#fff;}</style></defs><g id="Layer_2" data-name="Layer 2"><g id="Layer_1-2" data-name="Layer 1"><path class="cls-1" d="M31.08,3.39a1.69,1.69,0,0,1,.65.68,1.08,1.08,0,0,1-.08,1l-4.41,6.27a1,1,0,0,1-.61.5,1.14,1.14,0,0,1-.8-.22A10.1,10.1,0,0,0,23,10.12a10.37,10.37,0,0,0-3.27-.52,9.43,9.43,0,0,0-7,3,10.25,10.25,0,0,0-2,3.29,11.38,11.38,0,0,0,0,8,10.22,10.22,0,0,0,2,3.26,9.47,9.47,0,0,0,7,3,10.23,10.23,0,0,0,6.14-2,1.16,1.16,0,0,1,.78-.23,1,1,0,0,1,.62.47l4.47,6.42a1,1,0,0,1,.08,1,1.65,1.65,0,0,1-.66.65A20.45,20.45,0,0,1,25.9,39a20,20,0,0,1-16-1.82,20.13,20.13,0,0,1-7.15-7.13,19.61,19.61,0,0,1-2-4.75,20,20,0,0,1,2-15.4A20.5,20.5,0,0,1,5.83,5.84a19.62,19.62,0,0,1,4-3.11,20.58,20.58,0,0,1,4.77-2A19.34,19.34,0,0,1,19.94,0a19.74,19.74,0,0,1,5.91.87A20.84,20.84,0,0,1,31.08,3.39Z"/><path class="cls-1" d="M34.18,20a19.73,19.73,0,0,1,.71-5.31,20,20,0,0,1,2-4.78A20.5,20.5,0,0,1,40,5.84a19.62,19.62,0,0,1,4-3.11,20.58,20.58,0,0,1,4.77-2,19.9,19.9,0,0,1,10.61,0,20.48,20.48,0,0,1,4.78,2,20,20,0,0,1,4.05,3.11A19.77,19.77,0,0,1,71.38,9.9a20.84,20.84,0,0,1,2,4.78,19.94,19.94,0,0,1,0,10.62,20.43,20.43,0,0,1-2,4.75,19.53,19.53,0,0,1-3.12,4,20.77,20.77,0,0,1-4.05,3.11,20,20,0,0,1-20.16,0,20.13,20.13,0,0,1-7.15-7.13,19.61,19.61,0,0,1-2-4.75A19.84,19.84,0,0,1,34.18,20Zm10.1,0A11.25,11.25,0,0,0,45,24a10,10,0,0,0,2.05,3.27,9.53,9.53,0,0,0,3.11,2.19,10.25,10.25,0,0,0,7.94,0,9.47,9.47,0,0,0,3.12-2.19A10,10,0,0,0,63.28,24a11.54,11.54,0,0,0,0-8.08,10.15,10.15,0,0,0-2.05-3.3,9.71,9.71,0,0,0-14.17,0A10.15,10.15,0,0,0,45,15.93,11.26,11.26,0,0,0,44.28,20Z"/><path class="cls-1" d="M80.68,1.77A1.2,1.2,0,0,1,81,.91,1.06,1.06,0,0,1,81.7.57h25a1.16,1.16,0,0,1,.9.34,1.34,1.34,0,0,1,.31.91V8.28a1.36,1.36,0,0,1-.32.84,1.08,1.08,0,0,1-.91.4H90.78v8.09H102.5a1.23,1.23,0,0,1,.83.28,1,1,0,0,1,.34.87V25a1.42,1.42,0,0,1-.3.85,1,1,0,0,1-.82.4H90.78v12c0,.75-.4,1.12-1.2,1.12h-8a1,1,0,0,1-.94-1.09Z"/><path class="cls-1" d="M114.53,1.77a1.2,1.2,0,0,1,.3-.86,1.06,1.06,0,0,1,.72-.34h25a1.16,1.16,0,0,1,.9.34,1.33,1.33,0,0,1,.3.91V8.28a1.41,1.41,0,0,1-.31.84,1.1,1.1,0,0,1-.92.4H124.63v8.09h11.71a1.27,1.27,0,0,1,.84.28,1.06,1.06,0,0,1,.34.87V25a1.42,1.42,0,0,1-.3.85,1,1,0,0,1-.82.4H124.63v12c0,.75-.4,1.12-1.2,1.12h-8a1,1,0,0,1-.94-1.09Z"/><path class="cls-1" d="M148.17,1.77a1.24,1.24,0,0,1,.29-.87,1.1,1.1,0,0,1,.85-.33H175.2a1.18,1.18,0,0,1,.89.34,1.29,1.29,0,0,1,.31.91V8.28a1.35,1.35,0,0,1-.31.84,1.1,1.1,0,0,1-.92.4H158.26V16h13.05a1.33,1.33,0,0,1,.82.23.9.9,0,0,1,.33.78v5.64a1.08,1.08,0,0,1-.29.7,1,1,0,0,1-.83.34H158.26v6.68H175.8a1,1,0,0,1,1.17,1.2v6.56a.66.66,0,0,1-.21.47c-.07.48-.42.72-1.07.72H149.31a1.22,1.22,0,0,1-.83-.27,1.05,1.05,0,0,1-.31-.85Z"/><path class="cls-1" d="M183.39,1.77a1.24,1.24,0,0,1,.3-.87,1.09,1.09,0,0,1,.85-.33h25.89a1.16,1.16,0,0,1,.88.34,1.29,1.29,0,0,1,.32.91V8.28a1.36,1.36,0,0,1-.32.84,1.08,1.08,0,0,1-.91.4H193.49V16h13a1.35,1.35,0,0,1,.82.23.9.9,0,0,1,.33.78v5.64a1.08,1.08,0,0,1-.29.7,1,1,0,0,1-.84.34H193.49v6.68H211a1,1,0,0,1,1.17,1.2v6.56a.66.66,0,0,1-.21.47c-.07.48-.42.72-1.07.72H184.54a1.25,1.25,0,0,1-.84-.27,1.09,1.09,0,0,1-.31-.85Z"/><path class="cls-1" d="M4.87,48.62a1,1,0,0,1,.23-.56.72.72,0,0,1,.56-.25h5.43a.92.92,0,0,1,.56.23.72.72,0,0,1,.3.58V57.3H21V48.62a.81.81,0,0,1,.23-.57.78.78,0,0,1,.59-.24h5.34a1.15,1.15,0,0,1,.64.19.65.65,0,0,1,.27.58V74.15a.75.75,0,0,1-.23.6.91.91,0,0,1-.62.21h-5.4a.84.84,0,0,1-.59-.21.75.75,0,0,1-.23-.6V63.77H12V74.15a.76.76,0,0,1-.25.6A1,1,0,0,1,11,75H5.66a.68.68,0,0,1-.79-.72Z"/><path class="cls-1" d="M32.82,61.41a13.86,13.86,0,0,1,.49-3.72,14,14,0,0,1,3.6-6.18,13.33,13.33,0,0,1,2.82-2.19,14.3,14.3,0,0,1,3.34-1.4,13.79,13.79,0,0,1,7.43,0,14.19,14.19,0,0,1,3.35,1.4,13.65,13.65,0,0,1,2.83,2.19,13.38,13.38,0,0,1,2.19,2.84,15,15,0,0,1,1.41,3.34,14.09,14.09,0,0,1,0,7.44,14.5,14.5,0,0,1-1.41,3.33,13.2,13.2,0,0,1-2.19,2.81,14,14,0,0,1-2.83,2.19,13.41,13.41,0,0,1-3.35,1.4,14.05,14.05,0,0,1-7.43,0,13.49,13.49,0,0,1-3.34-1.4,13.67,13.67,0,0,1-2.82-2.19,13.88,13.88,0,0,1-2.19-2.81,13.67,13.67,0,0,1-1.41-3.33A13.86,13.86,0,0,1,32.82,61.41Zm7.07,0a7.79,7.79,0,0,0,.51,2.84,7.1,7.1,0,0,0,1.43,2.29A6.94,6.94,0,0,0,44,68.06a6.86,6.86,0,0,0,7.74-1.54,7,7,0,0,0,1.44-2.29,8.11,8.11,0,0,0,0-5.66,7,7,0,0,0-1.44-2.31,6.46,6.46,0,0,0-2.19-1.55,6.83,6.83,0,0,0-7.74,1.55,7.19,7.19,0,0,0-1.43,2.31A7.8,7.8,0,0,0,39.89,61.39Z"/><path class="cls-1" d="M72.22,64.13a6.25,6.25,0,0,0,.38,2.3,4.22,4.22,0,0,0,1,1.53,3.67,3.67,0,0,0,1.42.87,5.14,5.14,0,0,0,1.7.28,4.75,4.75,0,0,0,1.73-.32,4.16,4.16,0,0,0,1.43-1,4.69,4.69,0,0,0,1-1.57,5.89,5.89,0,0,0,.36-2.14V48.62a.8.8,0,0,1,.22-.57.83.83,0,0,1,.62-.24h5.33a.9.9,0,0,1,.66.25.79.79,0,0,1,.24.56V64a13.67,13.67,0,0,1-.94,5.37,9.23,9.23,0,0,1-2.53,3.5,9.68,9.68,0,0,1-3.69,1.9,16.61,16.61,0,0,1-4.39.58,16,16,0,0,1-4.41-.6,9.62,9.62,0,0,1-3.69-1.94,9.39,9.39,0,0,1-2.53-3.5A13.31,13.31,0,0,1,65.15,64V48.62a.85.85,0,0,1,.21-.56.67.67,0,0,1,.52-.25h5.47a1,1,0,0,1,.57.23.72.72,0,0,1,.3.58Z"/><path class="cls-1" d="M97,66.18c.2.17.47.4.79.69a10.71,10.71,0,0,0,1.11.85,9.35,9.35,0,0,0,1.84,1,5.39,5.39,0,0,0,1.92.34,5,5,0,0,0,1.56-.21,2.64,2.64,0,0,0,1-.55,2,2,0,0,0,.52-.81,3,3,0,0,0,.16-1,1.47,1.47,0,0,0-.43-1,4.51,4.51,0,0,0-1-.79,10.2,10.2,0,0,0-1.3-.6l-1.17-.41A27,27,0,0,1,98.1,62a11.84,11.84,0,0,1-2.74-2,7,7,0,0,1-2.19-5.31,6.67,6.67,0,0,1,2.64-5.46,9.33,9.33,0,0,1,3.06-1.52,13.82,13.82,0,0,1,4-.54,13.33,13.33,0,0,1,3.19.38,11.72,11.72,0,0,1,3,1.19c.41.25.8.5,1.18.76s.69.52,1,.76a4.26,4.26,0,0,1,.67.69,1.06,1.06,0,0,1,.25.57A.86.86,0,0,1,112,52a2.94,2.94,0,0,1-.36.46l-2.79,3a.92.92,0,0,1-.63.32.77.77,0,0,1-.46-.15,5.73,5.73,0,0,1-.47-.37l-.16-.14c-.25-.21-.52-.42-.82-.64a6.51,6.51,0,0,0-1-.6,6.64,6.64,0,0,0-1.07-.43,3.78,3.78,0,0,0-1.15-.18,6.81,6.81,0,0,0-1.14.1,3.51,3.51,0,0,0-.93.32,1.79,1.79,0,0,0-.64.58,1.66,1.66,0,0,0,0,1.75,2.53,2.53,0,0,0,.77.7,7.22,7.22,0,0,0,1.27.6c.5.19,1.09.39,1.76.61q1.93.64,3.57,1.35a11.92,11.92,0,0,1,2.83,1.66,6.81,6.81,0,0,1,1.85,2.29,7.12,7.12,0,0,1,.67,3.24,8,8,0,0,1-.82,3.64,8.36,8.36,0,0,1-2.26,2.79,10.52,10.52,0,0,1-3.37,1.78,13.39,13.39,0,0,1-4.17.63,11.82,11.82,0,0,1-4.13-.75,16,16,0,0,1-3.78-2,10.75,10.75,0,0,1-1.24-1.05l-.79-.82-.06-.06,0,0,0,0a.07.07,0,0,0,0-.05s0,0,0,0a1.27,1.27,0,0,1-.42-.73,1,1,0,0,1,.42-.7l3.16-3a1.2,1.2,0,0,1,.62-.28.71.71,0,0,1,.35.11C96.67,65.93,96.82,66,97,66.18Z"/><path class="cls-1" d="M117.55,48.66a.9.9,0,0,1,.21-.62.76.76,0,0,1,.59-.23h18.13a.78.78,0,0,1,.62.24.89.89,0,0,1,.22.64v4.52a.92.92,0,0,1-.22.59.75.75,0,0,1-.64.28H124.62v4.54h9.14a.94.94,0,0,1,.57.16.61.61,0,0,1,.23.55v4a.72.72,0,0,1-.2.49.71.71,0,0,1-.58.24h-9.16v4.68H136.9a.73.73,0,0,1,.82.84v4.59a.41.41,0,0,1-.14.32c-.05.35-.3.52-.75.52H118.35a.83.83,0,0,1-.58-.2.71.71,0,0,1-.22-.59Z"/><rect class="cls-1" x="143.38" y="47.94" width="71.85" height="30.12"/><rect class="cls-1" x="141.9" y="43.7" width="64.61" height="30.12" transform="translate(-1.48 4.6) rotate(-1.51)"/><path class="cls-2" d="M157.07,58.24c0,.13,0,.4-.09.85a7.07,7.07,0,0,1,4.35-1.28A7.78,7.78,0,0,1,167.1,60a7.25,7.25,0,0,1,2,5.36c0,5.15-3.38,8.21-9.07,8.21-3.38,0-6-1.15-7.59-3.3a8.39,8.39,0,0,1-1.34-3l5.39-.84A3.22,3.22,0,0,0,160,69.05a3.46,3.46,0,0,0,3.75-3.57,3.39,3.39,0,0,0-3.7-3.54,3.34,3.34,0,0,0-3.38,2l-5-.48c.11-.81.19-1.45.27-2.2l.72-8.37c.06-.56.08-1.21.11-2.23,1.13.06,1.4.06,2.68.06h8a33.77,33.77,0,0,0,4.43-.19V55.2c-1.42-.13-2.66-.18-4.37-.18h-6.23Z"/><path class="cls-2" d="M189.07,55a21.14,21.14,0,0,0-3.68,5.39A33.41,33.41,0,0,0,181.61,73h-6.2a38,38,0,0,1,3.22-10.44,42.79,42.79,0,0,1,4.4-7.19h-7.64a32.83,32.83,0,0,0-4,.19V50.51a38.06,38.06,0,0,0,4.34.19h9.07c2.47,0,3.22,0,4.32-.11Z"/><path class="cls-2" d="M203.47,56.68a2.79,2.79,0,0,0-3-2.23,3.74,3.74,0,0,0-3.59,2.31,9.14,9.14,0,0,0-.78,3.33,4.68,4.68,0,0,1,1.69-1.21,8.18,8.18,0,0,1,3.57-.7c4.85,0,7.91,2.9,7.91,7.51s-3.65,7.89-8.93,7.89a8.68,8.68,0,0,1-6.71-2.71c-1.8-2-2.74-5-2.74-8.64a15.06,15.06,0,0,1,2.23-8.45,8.67,8.67,0,0,1,7.56-3.59,8.44,8.44,0,0,1,6.28,2.36,8.6,8.6,0,0,1,1.8,3Zm-6.95,9.15a3.79,3.79,0,0,0,7.54-.06c0-2.06-1.39-3.32-3.7-3.32S196.52,63.76,196.52,65.83Z"/></g></g></svg>