<svg xmlns="http://www.w3.org/2000/svg" viewBox="0 0 585.84 52.73"><defs><style>.cls-1{fill:#231f20;}.cls-2{fill:#fff;}</style></defs><g id="Layer_2" data-name="Layer 2"><g id="Layer_1-2" data-name="Layer 1"><path class="cls-1" d="M34,10.82a1.8,1.8,0,0,1,.71.74,1.16,1.16,0,0,1-.08,1.09L29.79,19.5a1.15,1.15,0,0,1-.67.55,1.23,1.23,0,0,1-.87-.24,10.86,10.86,0,0,0-6.65-2.2,10.41,10.41,0,0,0-7.71,3.31,11.22,11.22,0,0,0-2.22,3.6,12.42,12.42,0,0,0,0,8.77,11.09,11.09,0,0,0,2.22,3.57,10.72,10.72,0,0,0,3.4,2.41,10.38,10.38,0,0,0,4.31.88,11,11,0,0,0,3.59-.58,11.14,11.14,0,0,0,3.11-1.64,1.32,1.32,0,0,1,.86-.26,1.15,1.15,0,0,1,.68.51l4.88,7a1.14,1.14,0,0,1,.09,1.06,1.86,1.86,0,0,1-.71.71,22.5,22.5,0,0,1-5.78,2.78,21.32,21.32,0,0,1-6.52,1,21.57,21.57,0,0,1-11-3A22.21,22.21,0,0,1,3,40a21.23,21.23,0,0,1-2.2-5.2,21.9,21.9,0,0,1,10-24.68A22.44,22.44,0,0,1,16,7.9a21.06,21.06,0,0,1,5.81-.79,21.3,21.3,0,0,1,6.46,1A22.17,22.17,0,0,1,34,10.82Z"/><path class="cls-1" d="M37.38,29a21.64,21.64,0,0,1,3-11,22,22,0,0,1,3.41-4.44,21.49,21.49,0,0,1,4.41-3.41A22.26,22.26,0,0,1,53.38,7.9,21.72,21.72,0,0,1,65,7.9a21.8,21.8,0,0,1,9.65,5.6,22,22,0,0,1,3.41,4.44,23.18,23.18,0,0,1,2.2,5.22,22,22,0,0,1,0,11.61,22.46,22.46,0,0,1-2.2,5.2,21.92,21.92,0,0,1-3.41,4.39,22.54,22.54,0,0,1-4.43,3.41A21.89,21.89,0,0,1,40.35,40a20.86,20.86,0,0,1-2.2-5.2A21.37,21.37,0,0,1,37.38,29Zm11,0a11.93,11.93,0,0,0,.8,4.42,10.78,10.78,0,0,0,2.23,3.58,10.43,10.43,0,0,0,3.41,2.4,11.24,11.24,0,0,0,8.67,0A10.27,10.27,0,0,0,67,36.94a10.8,10.8,0,0,0,2.24-3.58,12.58,12.58,0,0,0,0-8.83A11,11,0,0,0,67,20.92a10.32,10.32,0,0,0-3.42-2.42,10.64,10.64,0,0,0-12.08,2.42,11,11,0,0,0-2.23,3.61A12,12,0,0,0,48.42,28.94Z"/><path class="cls-1" d="M88.22,9.05a1.3,1.3,0,0,1,.33-.94,1.15,1.15,0,0,1,.78-.37h27.31a1.22,1.22,0,0,1,1,.37,1.45,1.45,0,0,1,.33,1v7.05a1.51,1.51,0,0,1-.34.93,1.2,1.2,0,0,1-1,.44H99.26v8.84h12.81a1.43,1.43,0,0,1,.92.3,1.19,1.19,0,0,1,.37,1v6.82a1.51,1.51,0,0,1-.33.92,1.06,1.06,0,0,1-.9.45H99.26V48.88c0,.82-.44,1.23-1.31,1.23h-8.7a1.08,1.08,0,0,1-1-1.2Z"/><path class="cls-1" d="M125.23,9.05a1.34,1.34,0,0,1,.32-.94,1.15,1.15,0,0,1,.79-.37h27.3a1.25,1.25,0,0,1,1,.37,1.45,1.45,0,0,1,.33,1v7.05a1.52,1.52,0,0,1-.35.93,1.19,1.19,0,0,1-1,.44H136.27v8.84h12.81a1.4,1.4,0,0,1,.91.3,1.15,1.15,0,0,1,.37,1v6.82a1.51,1.51,0,0,1-.33.92,1,1,0,0,1-.89.45H136.27V48.88c0,.82-.44,1.23-1.31,1.23h-8.71a1.08,1.08,0,0,1-1-1.2Z"/><path class="cls-1" d="M162,9.05a1.32,1.32,0,0,1,.33-1,1.2,1.2,0,0,1,.93-.36h28.3a1.24,1.24,0,0,1,1,.37,1.42,1.42,0,0,1,.35,1v7.05a1.52,1.52,0,0,1-.35.93,1.2,1.2,0,0,1-1,.44H173.05V24.6h14.26a1.52,1.52,0,0,1,.9.26,1,1,0,0,1,.36.86v6.16a1.2,1.2,0,0,1-.32.77,1.11,1.11,0,0,1-.91.37H173.05v7.3h19.17a1.15,1.15,0,0,1,1.28,1.31V48.8a.67.67,0,0,1-.23.51c-.07.53-.46.8-1.17.8H163.26a1.31,1.31,0,0,1-.91-.3,1.17,1.17,0,0,1-.35-.93Z"/><path class="cls-1" d="M200.52,9.05a1.32,1.32,0,0,1,.33-1,1.18,1.18,0,0,1,.92-.36h28.31a1.24,1.24,0,0,1,1,.37,1.41,1.41,0,0,1,.34,1v7.05a1.51,1.51,0,0,1-.34.93,1.2,1.2,0,0,1-1,.44H211.56V24.6h14.27a1.52,1.52,0,0,1,.9.26,1,1,0,0,1,.35.86v6.16a1.19,1.19,0,0,1-.31.77,1.11,1.11,0,0,1-.91.37h-14.3v7.3h19.18A1.15,1.15,0,0,1,232,41.63V48.8a.71.71,0,0,1-.23.51c-.07.53-.46.8-1.17.8H201.77a1.33,1.33,0,0,1-.91-.3,1.17,1.17,0,0,1-.34-.93Z"/><path class="cls-1" d="M237,31.34a4.71,4.71,0,0,1,.39-1.92,5,5,0,0,1,1-1.54,5.39,5.39,0,0,1,1.56-1,4.86,4.86,0,0,1,1.91-.38,4.75,4.75,0,0,1,1.88.38,5.39,5.39,0,0,1,1.56,1,4.87,4.87,0,0,1,0,6.92,5.07,5.07,0,0,1-1.56,1.06,4.75,4.75,0,0,1-1.88.38,4.86,4.86,0,0,1-1.91-.38,4.94,4.94,0,0,1-2.61-2.63A4.7,4.7,0,0,1,237,31.34Z"/><path class="cls-1" d="M253.56,9a1.41,1.41,0,0,1,.36-.87,1.08,1.08,0,0,1,.87-.39h8.47a1.46,1.46,0,0,1,.89.36,1.11,1.11,0,0,1,.45.9V22.55h14.18V9a1.23,1.23,0,0,1,.36-.89,1.21,1.21,0,0,1,.92-.37h8.34a1.78,1.78,0,0,1,1,.29,1,1,0,0,1,.42.91V48.85a1.17,1.17,0,0,1-.37.95,1.42,1.42,0,0,1-1,.31h-8.43a1.33,1.33,0,0,1-.92-.31,1.2,1.2,0,0,1-.36-.95V32.65H264.6v16.2a1.18,1.18,0,0,1-.38.93,1.56,1.56,0,0,1-1,.33h-8.39q-1.2,0-1.23-1.11Z"/><path class="cls-1" d="M297.18,29a21.44,21.44,0,0,1,.78-5.81,21.85,21.85,0,0,1,2.19-5.22,22.36,22.36,0,0,1,3.42-4.44A21.49,21.49,0,0,1,308,10.09a22.08,22.08,0,0,1,5.21-2.19,21.69,21.69,0,0,1,11.6,0A22.23,22.23,0,0,1,330,10.09a21.8,21.8,0,0,1,7.84,7.85,22.7,22.7,0,0,1,2.19,5.22,21.72,21.72,0,0,1,0,11.61,22,22,0,0,1-2.19,5.2,21.61,21.61,0,0,1-3.42,4.39A22.19,22.19,0,0,1,330,47.77a21.8,21.8,0,0,1-26.45-3.41A22.34,22.34,0,0,1,300.15,40a21.76,21.76,0,0,1-3-11Zm11.05,0a12.13,12.13,0,0,0,.79,4.42,11,11,0,0,0,2.24,3.58,10.43,10.43,0,0,0,3.41,2.4,10.57,10.57,0,0,0,4.33.87,10.68,10.68,0,0,0,4.34-.87,10.37,10.37,0,0,0,3.42-2.4A10.8,10.8,0,0,0,329,33.36a12.58,12.58,0,0,0,0-8.83,11,11,0,0,0-2.24-3.61,10.42,10.42,0,0,0-3.42-2.42,10.53,10.53,0,0,0-4.34-.89,10.45,10.45,0,0,0-7.74,3.31A11.21,11.21,0,0,0,309,24.53,12.19,12.19,0,0,0,308.23,28.94Z"/><path class="cls-1" d="M358.7,33.21a9.54,9.54,0,0,0,.59,3.59,6.63,6.63,0,0,0,1.54,2.39,5.77,5.77,0,0,0,2.23,1.36,8.12,8.12,0,0,0,2.64.43,7.41,7.41,0,0,0,2.71-.5A6.29,6.29,0,0,0,370.64,39a7.11,7.11,0,0,0,1.51-2.44,9.31,9.31,0,0,0,.56-3.34V9A1.25,1.25,0,0,1,374,7.74h8.33a1.36,1.36,0,0,1,1,.39,1.19,1.19,0,0,1,.37.87v24a21.16,21.16,0,0,1-1.47,8.39,14.48,14.48,0,0,1-3.95,5.46,15.16,15.16,0,0,1-5.75,3,25.7,25.7,0,0,1-6.86.9,25.12,25.12,0,0,1-6.88-.93,15.17,15.17,0,0,1-5.76-3,14.57,14.57,0,0,1-3.95-5.47,20.81,20.81,0,0,1-1.47-8.29V9a1.28,1.28,0,0,1,.33-.87,1,1,0,0,1,.81-.39h8.53a1.48,1.48,0,0,1,.9.36,1.09,1.09,0,0,1,.47.9Z"/><path class="cls-1" d="M397.36,36.41l1.24,1.07a16,16,0,0,0,1.73,1.33,14.27,14.27,0,0,0,2.88,1.51,8.39,8.39,0,0,0,3,.55,7.74,7.74,0,0,0,2.44-.33,4.14,4.14,0,0,0,1.56-.87,3,3,0,0,0,.81-1.26,4.68,4.68,0,0,0,.24-1.51,2.21,2.21,0,0,0-.67-1.58,6.85,6.85,0,0,0-1.64-1.24,14.24,14.24,0,0,0-2-.93l-1.83-.64a41.06,41.06,0,0,1-6-2.58,18.17,18.17,0,0,1-4.28-3.08,11.51,11.51,0,0,1-2.57-3.73,11.64,11.64,0,0,1-.85-4.55,10.43,10.43,0,0,1,4.12-8.52,14.38,14.38,0,0,1,4.78-2.38,21.63,21.63,0,0,1,6.25-.84,20.83,20.83,0,0,1,5,.58,18.9,18.9,0,0,1,4.69,1.87c.65.38,1.26.78,1.84,1.19a17.84,17.84,0,0,1,1.53,1.18,7.89,7.89,0,0,1,1,1.08,1.64,1.64,0,0,1,.38.89,1.36,1.36,0,0,1-.18.68,4.75,4.75,0,0,1-.56.72l-4.37,4.65a1.38,1.38,0,0,1-1,.48,1.19,1.19,0,0,1-.72-.23,8.82,8.82,0,0,1-.73-.57l-.26-.23c-.38-.32-.8-.65-1.27-1a9.82,9.82,0,0,0-1.49-.93,10,10,0,0,0-1.69-.69,6.14,6.14,0,0,0-1.8-.27,9.84,9.84,0,0,0-1.76.16,4.74,4.74,0,0,0-1.46.5,2.81,2.81,0,0,0-1,.9,2.63,2.63,0,0,0,0,2.74,4,4,0,0,0,1.2,1.08,10.81,10.81,0,0,0,2,.94c.79.3,1.71.62,2.75,1q3,1,5.58,2.1a18.58,18.58,0,0,1,4.41,2.59,10.76,10.76,0,0,1,2.9,3.58,11.25,11.25,0,0,1,1,5.05,12.4,12.4,0,0,1-1.29,5.69,12.94,12.94,0,0,1-3.52,4.36,16.7,16.7,0,0,1-5.26,2.78,21.13,21.13,0,0,1-6.51,1,18.47,18.47,0,0,1-6.45-1.17,24.44,24.44,0,0,1-5.9-3.15,15.22,15.22,0,0,1-1.93-1.63c-.52-.53-.94-1-1.24-1.29l-.09-.08a.16.16,0,0,0-.05-.08s0,0-.06,0a.14.14,0,0,0-.06-.07.1.1,0,0,1,0,0,2,2,0,0,1-.66-1.15,1.62,1.62,0,0,1,.66-1.08l4.93-4.71a1.82,1.82,0,0,1,1-.43,1.09,1.09,0,0,1,.54.17A5.93,5.93,0,0,1,397.36,36.41Z"/><path class="cls-1" d="M429.46,9.05a1.36,1.36,0,0,1,.32-1,1.2,1.2,0,0,1,.93-.36H459a1.26,1.26,0,0,1,1,.37,1.46,1.46,0,0,1,.34,1v7.05a1.57,1.57,0,0,1-.34.93,1.21,1.21,0,0,1-1,.44H440.5V24.6h14.27a1.47,1.47,0,0,1,.89.26,1,1,0,0,1,.36.86v6.16a1.19,1.19,0,0,1-.31.77,1.14,1.14,0,0,1-.92.37H440.5v7.3h19.17A1.15,1.15,0,0,1,461,41.63V48.8a.71.71,0,0,1-.23.51c-.08.53-.47.8-1.17.8H430.71a1.33,1.33,0,0,1-.91-.3,1.17,1.17,0,0,1-.34-.93Z"/><rect class="cls-1" x="473.68" y="5.71" width="112.16" height="47.02"/><rect class="cls-1" x="467.47" y="1.32" width="100.87" height="47.02" transform="translate(-0.47 13.61) rotate(-1.51)"/><path class="cls-2" d="M491.15,24c0,.21,0,.63-.13,1.34a11,11,0,0,1,6.79-2,12.14,12.14,0,0,1,9,3.43A11.33,11.33,0,0,1,510,35.15c0,8-5.27,12.81-14.15,12.81-5.28,0-9.42-1.8-11.85-5.15a13.14,13.14,0,0,1-2.1-4.69l8.42-1.3c.71,2.77,2.47,4.06,5.49,4.06,3.51,0,5.86-2.22,5.86-5.57s-2.26-5.52-5.78-5.52c-2.64,0-4.36,1-5.28,3.1l-7.78-.76c.16-1.25.29-2.26.41-3.43l1.14-13.07c.08-.88.12-1.88.16-3.47,1.76.08,2.18.08,4.19.08H501.2a51.73,51.73,0,0,0,6.91-.29v7.33a67.41,67.41,0,0,0-6.82-.3h-9.72Z"/><path class="cls-2" d="M541.11,19a32.71,32.71,0,0,0-5.74,8.42c-3.35,6.41-4.85,11.43-5.9,19.64h-9.68a59.26,59.26,0,0,1,5-16.29,64.36,64.36,0,0,1,6.87-11.22H519.75a50.16,50.16,0,0,0-6.32.29V12a58.16,58.16,0,0,0,6.78.29h14.16c3.85,0,5,0,6.74-.17Z"/><path class="cls-2" d="M563.6,21.58a4.38,4.38,0,0,0-4.74-3.48,5.87,5.87,0,0,0-5.61,3.6A14.34,14.34,0,0,0,552,26.9,7.44,7.44,0,0,1,554.68,25a12.76,12.76,0,0,1,5.57-1.09c7.58,0,12.35,4.53,12.35,11.73S566.9,48,558.66,48c-4.36,0-8-1.47-10.47-4.23-2.81-3.1-4.28-7.79-4.28-13.48,0-5.28,1.3-10.18,3.48-13.19,2.72-3.77,6.57-5.62,11.81-5.62,4.1,0,7.54,1.3,9.8,3.69a13.44,13.44,0,0,1,2.8,4.69ZM552.75,35.86c0,3.1,2.47,5.32,5.82,5.32s5.95-2.22,5.95-5.41-2.18-5.19-5.78-5.19S552.75,32.63,552.75,35.86Z"/></g></g></svg>